<?xml version="1.0" encoding="utf-8"?>
<!-- Generator: Adobe Illustrator 23.0.2, SVG Export Plug-In . SVG Version: 6.00 Build 0)  -->
<svg version="1.1" id="Layer_1" xmlns="http://www.w3.org/2000/svg" xmlns:xlink="http://www.w3.org/1999/xlink" x="0px" y="0px"
	 viewBox="0 0 26 26" style="enable-background:new 0 0 26 26;" xml:space="preserve">
<style type="text/css">
	.st0{fill-rule:evenodd;clip-rule:evenodd;fill:#FFFFFF;fill-opacity:0;}
	.st1{fill-rule:evenodd;clip-rule:evenodd;fill:#FFAC1A;}
</style>
<title>Artboard</title>
<g id="Artboard">
	<g>
		<rect id="BG" class="st0" width="26" height="26"/>
		<path id="Shape" class="st1" d="M11,8h9c1.7,0,3,1.3,3,3v9c0,1.7-1.3,3-3,3h-9c-1.7,0-3-1.3-3-3v-9C8,9.3,9.3,8,11,8z M11,10
			c-0.6,0-1,0.4-1,1v9c0,0.6,0.4,1,1,1h9c0.6,0,1-0.4,1-1v-9c0-0.6-0.4-1-1-1H11z M7,16.2v2c-1.3-0.2-2.4-1.1-2.6-2.5L3,7.9
			C2.7,6.3,3.8,4.7,5.5,4.4L13.3,3c1.6-0.3,3.2,0.8,3.5,2.4L17.1,7h-2l-0.2-1.2c-0.1-0.5-0.6-0.9-1.2-0.8L5.8,6.4
			C5.3,6.5,4.9,7,5,7.5l1.4,7.9C6.4,15.8,6.7,16.1,7,16.2L7,16.2z M18.1,15.5l-4,2.4v-4.8L18.1,15.5z"/>
	</g>
</g>
</svg>
